<?xml version="1.0" encoding="UTF-8" standalone="no"?>
<svg
   id="icon"
   width="32"
   height="32"
   viewBox="0 0 32 32"
   version="1.1"
   sodipodi:docname="home.svg"
   inkscape:version="1.1.2 (0a00cf5339, 2022-02-04)"
   xmlns:inkscape="http://www.inkscape.org/namespaces/inkscape"
   xmlns:sodipodi="http://sodipodi.sourceforge.net/DTD/sodipodi-0.dtd"
   xmlns="http://www.w3.org/2000/svg"
   xmlns:svg="http://www.w3.org/2000/svg">
  <sodipodi:namedview
     id="namedview839"
     pagecolor="#ffffff"
     bordercolor="#666666"
     borderopacity="1.0"
     inkscape:pageshadow="2"
     inkscape:pageopacity="0.0"
     inkscape:pagecheckerboard="0"
     showgrid="false"
     inkscape:zoom="25.46875"
     inkscape:cx="4.6134969"
     inkscape:cy="15.980368"
     inkscape:window-width="1920"
     inkscape:window-height="1011"
     inkscape:window-x="0"
     inkscape:window-y="0"
     inkscape:window-maximized="1"
     inkscape:current-layer="icon" />
  <defs
     id="defs833">
    <style
       id="style831">
      .cls-1 {
        fill: none;
      }
    </style>
  </defs>
  <rect
     id="_Transparent_Rectangle_"
     data-name="&lt;Transparent Rectangle&gt;"
     class="cls-1"
     width="32"
     height="32" />
  <path
     d="M16.6123,2.2138a1.01,1.01,0,0,0-1.2427,0L1,13.4194l1.2427,1.5717L4,13.6209V26a2.0041,2.0041,0,0,0,2,2H26a2.0037,2.0037,0,0,0,2-2V13.63L29.7573,15,31,13.4282ZM18,26H14V18h4Zm2,0V18a2.0023,2.0023,0,0,0-2-2H14a2.002,2.002,0,0,0-2,2v8H6V12.0615l10-7.79,10,7.8005V26Z"
     transform="translate(0 0)"
     id="path836"
     style="fill:#ffffff" />
</svg>
