<?xml version="1.0" encoding="utf-8"?>
<!-- Generator: Adobe Illustrator 25.0.0, SVG Export Plug-In . SVG Version: 6.00 Build 0)  -->
<svg version="1.1" id="Layer_1" xmlns="http://www.w3.org/2000/svg" xmlns:xlink="http://www.w3.org/1999/xlink" x="0px" y="0px"
	 viewBox="0 0 48 48" style="enable-background:new 0 0 48 48;" xml:space="preserve">
<style type="text/css">
	.st0{fill:none;stroke:#4589FF;stroke-width:0.72;stroke-linejoin:round;}
</style>
<g id="Layer_2_1_">
	<g id="containers">
		<path class="st0" d="M39,23.4c0,2.5-2,4.6-4.5,4.6h-0.1H15.9C12.1,28,9,24.9,9,21.1l0,0c0-3.9,3.1-7,6.9-7.1c0.4,0,0.8,0,1.2,0.1
			C18.6,11.3,21,9,25.2,9c5.3,0,9.2,4.9,9.2,10c2.4-0.1,4.5,1.7,4.6,4.2C39,23.2,39,23.3,39,23.4z"/>
		<polygon class="st0" points="26.2,20.4 26.2,18.6 24.8,17.8 23.2,18.6 23.2,20.4 24.8,21.2 		"/>
		<polygon class="st0" points="20.2,27 20.2,25.3 18.8,24.4 17.2,25.3 17.2,27 18.8,27.9 		"/>
		<polygon class="st0" points="20.2,20.4 20.2,18.6 18.8,17.8 17.2,18.6 17.2,20.4 18.8,21.2 		"/>
		<polygon class="st0" points="32.2,27 32.2,25.3 30.8,24.4 29.2,25.3 29.2,27 30.8,27.9 		"/>
		<polygon class="st0" points="10.2,38.3 10.2,36.7 11.8,35.8 13.2,36.7 13.2,38.3 11.8,39.2 		"/>
		<polygon class="st0" points="20.8,32.3 20.8,30.6 22.2,29.8 23.8,30.6 23.8,32.3 22.2,33.2 		"/>
		<polygon class="st0" points="35.8,13.3 35.8,11.7 37.2,10.8 38.8,11.7 38.8,13.3 37.2,14.2 		"/>
		<polygon class="st0" points="35.8,32.3 35.8,30.7 37.2,29.8 38.8,30.7 38.8,32.3 37.2,33.2 		"/>
		<polygon class="st0" points="28.8,38.3 28.8,36.7 30.2,35.8 31.8,36.7 31.8,38.3 30.2,39.2 		"/>
	</g>
</g>
</svg>
