<?xml version="1.0" encoding="utf-8"?>
<!-- Generator: Adobe Illustrator 25.0.0, SVG Export Plug-In . SVG Version: 6.00 Build 0)  -->
<svg version="1.1" id="Layer_1" xmlns="http://www.w3.org/2000/svg" xmlns:xlink="http://www.w3.org/1999/xlink" x="0px" y="0px"
	 viewBox="0 0 48 48" style="enable-background:new 0 0 48 48;" xml:space="preserve">
<style type="text/css">
	.st0{fill:none;stroke:#4589FF;stroke-width:0.72;stroke-linejoin:round;}
</style>
<polyline class="st0" points="13.5,39 9.5,39 9.5,9 20.5,9 20.5,18 "/>
<line class="st0" x1="11.5" y1="12" x2="13.5" y2="12"/>
<line class="st0" x1="33.5" y1="24" x2="33.5" y2="22"/>
<line class="st0" x1="29.5" y1="24" x2="29.5" y2="22"/>
<line class="st0" x1="31.5" y1="24" x2="31.5" y2="22"/>
<line class="st0" x1="35.5" y1="24" x2="35.5" y2="22"/>
<line class="st0" x1="33.5" y1="31" x2="33.5" y2="29"/>
<line class="st0" x1="29.5" y1="31" x2="29.5" y2="29"/>
<line class="st0" x1="31.5" y1="31" x2="31.5" y2="29"/>
<line class="st0" x1="35.5" y1="31" x2="35.5" y2="29"/>
<g>
	<rect x="15.5" y="34" class="st0" width="22" height="5"/>
</g>
<g>
	<rect x="15.5" y="27" class="st0" width="22" height="5"/>
</g>
<g>
	<rect x="15.5" y="20" class="st0" width="22" height="5"/>
</g>
<line class="st0" x1="33.5" y1="38" x2="33.5" y2="36"/>
<line class="st0" x1="29.5" y1="38" x2="29.5" y2="36"/>
<line class="st0" x1="31.5" y1="38" x2="31.5" y2="36"/>
<line class="st0" x1="35.5" y1="38" x2="35.5" y2="36"/>
</svg>
