<?xml version="1.0" encoding="utf-8"?>
<!-- Generator: Adobe Illustrator 25.0.0, SVG Export Plug-In . SVG Version: 6.00 Build 0)  -->
<svg version="1.1" id="Layer_1" xmlns="http://www.w3.org/2000/svg" xmlns:xlink="http://www.w3.org/1999/xlink" x="0px" y="0px"
	 viewBox="0 0 48 48" style="enable-background:new 0 0 48 48;" xml:space="preserve">
<style type="text/css">
	.st0{fill:none;stroke:#4589FF;stroke-width:0.72;stroke-linejoin:round;}
	.st1{fill:none;stroke:#4589FF;stroke-width:0.72;stroke-linecap:round;stroke-linejoin:round;}
	.st2{fill:#4589FF;}
</style>
<g id="Layer_2_1_">
	<g id="infra_security">
		<circle class="st0" cx="24" cy="20" r="5"/>
		<path class="st0" d="M27,12c0-1.7-1.3-3-3-3s-3,1.3-3,3"/>
		<line class="st0" x1="21" y1="12" x2="21" y2="16"/>
		<line class="st0" x1="27" y1="12" x2="27" y2="16"/>
		<polyline class="st0" points="34,35 34,31 15,31 15,35 		"/>
		<line class="st0" x1="24" y1="27" x2="24" y2="35"/>
		<line class="st1" x1="24" y1="19" x2="24" y2="21"/>
		<circle class="st2" cx="24" cy="19" r="1"/>
		<path class="st0" d="M20.2,35h7.6c0.1,0,0.2,0.1,0.2,0.2v3.6c0,0.1-0.1,0.2-0.2,0.2h-7.6c-0.1,0-0.2-0.1-0.2-0.2v-3.6
			C20,35.1,20.1,35,20.2,35z"/>
		<path class="st0" d="M10.2,35h7.6c0.1,0,0.2,0.1,0.2,0.2v3.6c0,0.1-0.1,0.2-0.2,0.2h-7.6c-0.1,0-0.2-0.1-0.2-0.2v-3.6
			C10,35.1,10.1,35,10.2,35z"/>
		<path class="st0" d="M30.2,35h7.6c0.1,0,0.2,0.1,0.2,0.2v3.6c0,0.1-0.1,0.2-0.2,0.2h-7.6c-0.1,0-0.2-0.1-0.2-0.2v-3.6
			C30,35.1,30.1,35,30.2,35z"/>
		<line class="st0" x1="21" y1="37" x2="23" y2="37"/>
		<line class="st0" x1="11" y1="37" x2="13" y2="37"/>
		<line class="st0" x1="31" y1="37" x2="33" y2="37"/>
	</g>
</g>
</svg>
