<?xml version="1.0" encoding="utf-8"?>
<!-- Generator: Adobe Illustrator 25.0.0, SVG Export Plug-In . SVG Version: 6.00 Build 0)  -->
<svg version="1.1" id="Layer_1" xmlns="http://www.w3.org/2000/svg" xmlns:xlink="http://www.w3.org/1999/xlink" x="0px" y="0px"
	 viewBox="0 0 48 48" style="enable-background:new 0 0 48 48;" xml:space="preserve">
<style type="text/css">
	.st0{fill:#4589FF;}
	.st1{fill:none;stroke:#4589FF;stroke-width:0.72;stroke-linecap:round;stroke-linejoin:round;}
</style>
<g id="Layer_2_1_">
	<g id="operating_system">
		<path class="st0" d="M37,11.5c0,0.3-0.2,0.5-0.5,0.5S36,11.8,36,11.5s0.2-0.5,0.5-0.5S37,11.2,37,11.5z M34.5,11
			c-0.3,0-0.5,0.2-0.5,0.5s0.2,0.5,0.5,0.5s0.5-0.2,0.5-0.5S34.8,11,34.5,11z M32.5,11c-0.3,0-0.5,0.2-0.5,0.5s0.2,0.5,0.5,0.5
			s0.5-0.2,0.5-0.5S32.8,11,32.5,11z"/>
		<path class="st1" d="M9.2,10h29.6c0.1,0,0.2,0.1,0.2,0.2v27.6c0,0.1-0.1,0.2-0.2,0.2H9.2C9.1,38.1,9,38,9,37.9V10.2
			C9,10,9,10,9.2,10z"/>
		<line class="st1" x1="9" y1="13" x2="39" y2="13"/>
		<g id="gear">
			<path id="gear-2" class="st1" d="M30.2,26.4l-0.6,1.5l1.5,1.5l-2.3,2.3l-1.5-1.5l-1.5,0.6v2.1h-3.2v-2.1l-1.5-0.6l-1.5,1.5
				l-2.3-2.3l1.5-1.5l-0.6-1.5H16v-3.2h2.1l0.6-1.6l-1.5-1.5l2.3-2.3l1.5,1.5l1.5-0.6v-2.1h3.2v2.1l1.5,0.6l1.5-1.5l2.3,2.3
				l-1.4,1.5l0.6,1.5h2.1v3.2L30.2,26.4z M24.1,21c-2.1,0-3.8,1.7-3.8,3.8s1.7,3.8,3.8,3.8s3.8-1.7,3.8-3.8l0,0
				C28,22.8,26.2,21,24.1,21L24.1,21z"/>
		</g>
	</g>
</g>
</svg>
