<?xml version="1.0" encoding="utf-8"?>
<!-- Generator: Adobe Illustrator 25.0.0, SVG Export Plug-In . SVG Version: 6.00 Build 0)  -->
<svg version="1.1" id="Layer_1" xmlns="http://www.w3.org/2000/svg" xmlns:xlink="http://www.w3.org/1999/xlink" x="0px" y="0px"
	 viewBox="0 0 48 48" style="enable-background:new 0 0 48 48;" xml:space="preserve">
<style type="text/css">
	.st0{fill:none;stroke:#4589FF;stroke-width:0.72;stroke-linejoin:round;}
</style>
<g id="Layer_2_1_">
	<g id="san">
		<circle class="st0" cx="24" cy="34.5" r="2"/>
		<line class="st0" x1="26" y1="34.5" x2="35" y2="34.5"/>
		<line class="st0" x1="13" y1="34.5" x2="22" y2="34.5"/>
		<rect x="13" y="25.5" class="st0" width="22" height="5"/>
		<line class="st0" x1="27" y1="27.5" x2="33" y2="27.5"/>
		<line class="st0" x1="15" y1="27.5" x2="16" y2="27.5"/>
		<line class="st0" x1="17" y1="27.5" x2="18" y2="27.5"/>
		<line class="st0" x1="19" y1="27.5" x2="20" y2="27.5"/>
		<rect x="13" y="18.5" class="st0" width="22" height="5"/>
		<line class="st0" x1="27" y1="20.5" x2="33" y2="20.5"/>
		<line class="st0" x1="15" y1="20.5" x2="16" y2="20.5"/>
		<line class="st0" x1="17" y1="20.5" x2="18" y2="20.5"/>
		<line class="st0" x1="19" y1="20.5" x2="20" y2="20.5"/>
		<polygon class="st0" points="35,11.5 13,11.5 13,16.5 33,16.5 35,16.5 		"/>
		<line class="st0" x1="27" y1="13.5" x2="33" y2="13.5"/>
		<line class="st0" x1="15" y1="13.5" x2="16" y2="13.5"/>
		<line class="st0" x1="17" y1="13.5" x2="18" y2="13.5"/>
		<line class="st0" x1="19" y1="13.5" x2="20" y2="13.5"/>
		<line class="st0" x1="24" y1="30.5" x2="24" y2="32.5"/>
	</g>
</g>
</svg>
