<svg version="1.1" id="Layer_1" xmlns="http://www.w3.org/2000/svg" x="0" y="0" width="32" height="32" viewBox="0 0 32 32" xml:space="preserve"><style>.st0{fill:#4589ff}</style><switch><g><path class="st0" d="M19.3.8C12.8.8 7.4 6.1 7.4 12.7s5.3 11.9 11.9 11.9 11.9-5.3 11.9-11.9S25.9.8 19.3.8zm0 23c-6.1 0-11.1-5-11.1-11.1s5-11.1 11.1-11.1 11.1 5 11.1 11.1-4.9 11.1-11.1 11.1z"/><circle class="st0" cx="2.8" cy="12.2" r=".5"/><circle class="st0" cx="1.3" cy="14.2" r=".5"/><circle class="st0" cx="3.8" cy="18.2" r=".5"/><circle class="st0" cx="3.8" cy="24.2" r=".5"/><circle class="st0" cx="1.8" cy="5.2" r=".5"/><circle class="st0" cx="1.8" cy="10.2" r=".5"/><circle class="st0" cx="3.8" cy="15.2" r=".5"/><circle class="st0" cx="5.8" cy="13.2" r=".5"/><circle class="st0" cx="6.8" cy="18.2" r=".5"/><circle class="st0" cx="6.8" cy="7.2" r=".5"/><circle class="st0" cx="4.8" cy="11.2" r=".5"/><circle class="st0" cx="4.8" cy="4.2" r=".5"/><circle class="st0" cx="3.8" cy="9.2" r=".5"/><circle class="st0" cx="8.8" cy="4.2" r=".5"/><circle class="st0" cx="10.8" cy="24.2" r=".5"/><circle class="st0" cx="7.8" cy="26.2" r=".5"/><circle class="st0" cx="11.8" cy="28.2" r=".5"/><circle class="st0" cx="2.3" cy="16.2" r=".5"/><circle class="st0" cx="18.8" cy="27.2" r=".5"/><circle class="st0" cx="13.8" cy="30.7" r=".5"/><circle class="st0" cx="2.8" cy="21.2" r=".5"/><circle class="st0" cx="3.8" cy="29.2" r=".5"/><circle class="st0" cx="5.8" cy="23.2" r=".5"/><circle class="st0" cx="6.8" cy="21.2" r=".5"/><circle class="st0" cx="4.8" cy="27.2" r=".5"/><path class="st0" d="M14.6 14.9l-1.3 1.3-1.2-1.3-.5.5 1.2 1.3-1.2 1.2.5.5 1.2-1.2 1.3 1.2.5-.5-1.3-1.2 1.3-1.3zM25.6 12.9l-1.3 1.3-1.2-1.3-.5.5 1.2 1.3-1.2 1.2.5.5 1.2-1.2 1.3 1.2.5-.5-1.3-1.2 1.3-1.3zM19.6 5.9l-1.3 1.3-1.2-1.3-.5.5 1.2 1.3-1.2 1.2.5.5 1.2-1.2 1.3 1.2.5-.5-1.3-1.2 1.3-1.3z"/></g></switch></svg>
