<?xml version="1.0" encoding="utf-8"?>
<!-- Generator: Adobe Illustrator 25.2.0, SVG Export Plug-In . SVG Version: 6.00 Build 0)  -->
<svg version="1.1" id="Layer_1" xmlns="http://www.w3.org/2000/svg" xmlns:xlink="http://www.w3.org/1999/xlink" x="0px" y="0px"
	 viewBox="0 0 25 29" style="enable-background:new 0 0 25 29;" xml:space="preserve">
<style type="text/css">
	.st0{fill:none;stroke:#5596E6;stroke-width:0.8611;stroke-miterlimit:10;}
	.st1{fill:none;stroke:#5596E6;stroke-width:0.8611;stroke-linecap:round;stroke-miterlimit:10;}
</style>
<desc>Created with Sketch.</desc>
<path class="st0" d="M4.4,8.1c0.7,0,1.3-0.6,1.3-1.3S5.2,5.5,4.4,5.5c-0.7,0-1.3,0.6-1.3,1.3S3.7,8.1,4.4,8.1z"/>
<path class="st0" d="M20.6,24.3c0.7,0,1.3-0.6,1.3-1.3s-0.6-1.3-1.3-1.3c-0.7,0-1.3,0.6-1.3,1.3S19.9,24.3,20.6,24.3z"/>
<path class="st0" d="M5.3,7.8l14.5,14.5"/>
<path class="st1" d="M16.2,18.7c-1.2,0.2-2.4,0.2-3.6,0.2c-6.5,0-11.8-1.8-11.8-4c0-1.4,2.1-2.6,5.4-3.3"/>
<path class="st1" d="M8.8,11.2c1.2-0.1,2.4-0.2,3.8-0.2c6.5,0,11.8,1.8,11.8,4c0,1.4-2.2,2.7-5.6,3.3"/>
<path class="st0" d="M19.8,24.2c-2,1.6-4.6,2.5-7.3,2.5C6,26.8,0.7,21.4,0.7,14.9c0-2.7,1-5.3,2.5-7.3"/>
<path class="st0" d="M5.2,5.6C7.2,4,9.7,3,12.5,3c6.5,0,11.9,5.3,11.9,11.9c0,2.8-1,5.4-2.6,7.4"/>
</svg>
