<?xml version="1.0" encoding="utf-8"?>
<!-- Generator: Adobe Illustrator 25.0.0, SVG Export Plug-In . SVG Version: 6.00 Build 0)  -->
<svg version="1.1" id="Layer_1" xmlns="http://www.w3.org/2000/svg" xmlns:xlink="http://www.w3.org/1999/xlink" x="0px" y="0px"
	 viewBox="0 0 48 48" style="enable-background:new 0 0 48 48;" xml:space="preserve">
<style type="text/css">
	.st0{fill:none;stroke:#4589FF;stroke-width:0.72;stroke-miterlimit:10;}
</style>
<g id="Layer_2_1_">
	<g id="continuity">
		<path class="st0" d="M23,23l-1-1l-2.4-2.4c-2.5-2.2-6.4-2.1-8.8,0.2c-2.3,2.2-2.4,5.8-0.3,8.1c0.1,0.1,0.2,0.2,0.3,0.3
			c2.4,2.3,6.3,2.4,8.8,0.2"/>
		<path class="st0" d="M28.4,19.6c2.5-2.2,6.4-2.1,8.8,0.2c2.3,2.1,2.4,5.7,0.3,8c-0.1,0.1-0.2,0.2-0.3,0.3
			c-2.4,2.3-6.2,2.4-8.8,0.2l0,0L27,27l-1-1l-1-1"/>
		<line class="st0" x1="21" y1="27" x2="27" y2="21"/>
		<polyline class="st0" points="27,24 27,21 24,21 		"/>
	</g>
</g>
</svg>
