<?xml version="1.0" encoding="utf-8"?>
<!-- Generator: Adobe Illustrator 24.2.3, SVG Export Plug-In . SVG Version: 6.00 Build 0)  -->
<svg version="1.1" id="Layer_1" xmlns="http://www.w3.org/2000/svg" xmlns:xlink="http://www.w3.org/1999/xlink" x="0px" y="0px"
	 viewBox="0 0 48 48" style="enable-background:new 0 0 48 48;" xml:space="preserve">
<style type="text/css">
	.st0{fill:none;stroke:#0002FE;stroke-width:0.72;stroke-linejoin:round;stroke-miterlimit:10;}
</style>
<g id="digital">
	<path id="digital_1_" class="st0" d="M14,11.5c0,1.4-1.1,2.5-2.5,2.5S9,12.9,9,11.5S10.1,9,11.5,9S14,10.1,14,11.5z M11.5,21.5v-4
		 M11.5,26C10.1,26,9,27.1,9,28.5s1.1,2.5,2.5,2.5s2.5-1.1,2.5-2.5S12.9,26,11.5,26z M11.5,38.5v-4 M28,9c-1.4,0-2.5,1.1-2.5,2.5
		S26.6,14,28,14s2.5-1.1,2.5-2.5S29.4,9,28,9z M28,21.5v-4 M28,26c-1.4,0-2.5,1.1-2.5,2.5S26.6,31,28,31s2.5-1.1,2.5-2.5
		S29.4,26,28,26z M28,38.5v-4 M36.5,39c1.4,0,2.5-1.1,2.5-2.5S37.9,34,36.5,34S34,35.1,34,36.5S35.1,39,36.5,39z M36.5,26.5v4
		 M36.5,22c1.4,0,2.5-1.1,2.5-2.5S37.9,17,36.5,17S34,18.1,34,19.5S35.1,22,36.5,22z M36.5,9.5v4 M20,39c1.4,0,2.5-1.1,2.5-2.5
		S21.4,34,20,34s-2.5,1.1-2.5,2.5S18.6,39,20,39z M20,26.5v4 M20,22c1.4,0,2.5-1.1,2.5-2.5S21.4,17,20,17s-2.5,1.1-2.5,2.5
		S18.6,22,20,22z M20,9.5v4"/>
</g>
<g id="Layer_1_1_">
</g>
</svg>
