<?xml version="1.0" encoding="utf-8"?>
<!-- Generator: Adobe Illustrator 25.0.0, SVG Export Plug-In . SVG Version: 6.00 Build 0)  -->
<svg version="1.1" id="Layer_1" xmlns="http://www.w3.org/2000/svg" xmlns:xlink="http://www.w3.org/1999/xlink" x="0px" y="0px"
	 viewBox="0 0 48 48" style="enable-background:new 0 0 48 48;" xml:space="preserve">
<style type="text/css">
	.st0{fill:none;stroke:#4589FF;stroke-width:0.72;stroke-linejoin:round;}
</style>
<polyline class="st0" points="25,33.5 31,23.5 25,23.5 31,12.5 "/>
<polyline class="st0" points="23,23.5 9,23.5 9,14.5 27,14.5 "/>
<polyline class="st0" points="33,14.5 39,14.5 39,23.5 33,23.5 "/>
<path class="st0" d="M16.8,23.2"/>
<line class="st0" x1="16" y1="20.5" x2="16" y2="17.5"/>
<line class="st0" x1="12" y1="20.5" x2="12" y2="17.5"/>
<line class="st0" x1="14" y1="20.5" x2="14" y2="17.5"/>
<line class="st0" x1="18" y1="20.5" x2="18" y2="17.5"/>
<polyline class="st0" points="26,26.5 9,26.5 9,35.5 39,35.5 39,26.5 32,26.5 "/>
<line class="st0" x1="12" y1="32.5" x2="12" y2="29.5"/>
<line class="st0" x1="14" y1="32.5" x2="14" y2="29.5"/>
<line class="st0" x1="16" y1="32.5" x2="16" y2="29.5"/>
<line class="st0" x1="18" y1="32.5" x2="18" y2="29.5"/>
</svg>
