<?xml version="1.0" encoding="utf-8"?>
<!-- Generator: Adobe Illustrator 25.0.0, SVG Export Plug-In . SVG Version: 6.00 Build 0)  -->
<svg version="1.1" id="Layer_1" xmlns="http://www.w3.org/2000/svg" xmlns:xlink="http://www.w3.org/1999/xlink" x="0px" y="0px"
	 viewBox="0 0 48 48" style="enable-background:new 0 0 48 48;" xml:space="preserve">
<style type="text/css">
	.st0{fill:none;stroke:#4589FF;stroke-width:0.72;stroke-linejoin:round;}
</style>
<g id="Layer_2_1_">
	<g id="ico-hybrid_cloud">
		<rect x="24" y="25" class="st0" width="15" height="4"/>
		<line class="st0" x1="26" y1="27" x2="28" y2="27"/>
		<rect x="24" y="29" class="st0" width="15" height="4"/>
		<line class="st0" x1="26" y1="31" x2="28" y2="31"/>
		<rect x="24" y="21" class="st0" width="15" height="4"/>
		<line class="st0" x1="26" y1="23" x2="28" y2="23"/>
		<path class="st0" d="M33,19c-1.8-2.6-4.7-4.1-7.8-4c-3.4,0.2-6.5,2.1-8.2,5.1C16.6,20,16.2,20,15.8,20c-3.6-0.2-6.6,2.6-6.8,6.2
			c0,0.1,0,0.2,0,0.3c0,3.8,3.2,6.5,7,6.5h6"/>
	</g>
</g>
</svg>
