<?xml version="1.0" encoding="utf-8"?>
<!-- Generator: Adobe Illustrator 25.0.0, SVG Export Plug-In . SVG Version: 6.00 Build 0)  -->
<svg version="1.1" id="Layer_1" xmlns="http://www.w3.org/2000/svg" xmlns:xlink="http://www.w3.org/1999/xlink" x="0px" y="0px"
	 viewBox="0 0 48 48" style="enable-background:new 0 0 48 48;" xml:space="preserve">
<style type="text/css">
	.st0{fill:none;stroke:#4589FF;stroke-width:0.72;stroke-linejoin:round;}
</style>
<path class="st0" d="M21.4,38c0,0,1.9-0.3,3-0.3c1.6,0,2.7,0.2,2.7,0.2"/>
<path id="path132_8_" class="st0" d="M16.1,38.2c-1.4-0.1-4.2,0.1-4.2-1.5c0-0.7,0.5-0.9,0.8-1.7c0.2-0.7-0.4-1.8,0-2.5
	c0.7-1.1,1.9-0.3,2.4-0.9c0.6-0.6,0.5-1.4,1.6-1.4s1.7,1.4,2.5,2.9c0.7,1.5,2.3,2.6,2.3,3.9c0,1.3-1,2-2.1,2
	C18.3,39,17.5,38.2,16.1,38.2z"/>
<path id="path132_7_" class="st0" d="M28.1,33.6c0.1-1.4,0.1-4.2,1.7-4.1c0.7,0,0.9,0.5,1.6,0.9c0.7,0.3,1.8-0.3,2.5,0.1
	c1.1,0.8,0.2,1.9,0.8,2.5c0.6,0.6,1.4,0.5,1.4,1.6c0,1.1-1.5,1.7-3,2.3c-1.5,0.7-2.7,2.2-4,2.1c-1.3-0.1-1.9-1-1.9-2.2
	C27.1,35.7,28,34.9,28.1,33.6z"/>
<path id="path119_5_" class="st0" d="M22.9,16c0.6,0,1.1,0.2,1.9,0.6c1,0.4,2.1,0.7,2.1,1.6c0,0.5-0.5,0.9-1.7,1.5
	c-0.6,0.3-1.5,0.6-2.4,0.6c-0.6,0-1.2-0.2-1.9-0.6c-0.5-0.2-1.1-0.6-1.1-1.5c0-0.9,0.8-1.3,1.5-1.7C22,16.3,22.4,16,22.9,16z"/>
<path class="st0" d="M33.4,30.3c0.1-0.4,0.1-0.9,0.1-1.4c0-2-0.4-3.4-1.7-5.4c-2-3.3-2.9-6.8-2.9-9.5c0-2.8-2.2-5-5-5s-5,2.2-5,5
	c0,1.7,0.5,5.7-1.9,10.3h0c-0.8,1.4-1.2,3-1.2,4.7c0,0.6,0,1.1,0.1,1.6"/>
</svg>
