<?xml version="1.0" encoding="utf-8"?>
<!-- Generator: Adobe Illustrator 25.0.0, SVG Export Plug-In . SVG Version: 6.00 Build 0)  -->
<svg version="1.1" id="Layer_1" xmlns="http://www.w3.org/2000/svg" xmlns:xlink="http://www.w3.org/1999/xlink" x="0px" y="0px"
	 viewBox="0 0 48 48" style="enable-background:new 0 0 48 48;" xml:space="preserve">
<style type="text/css">
	.st0{fill:none;stroke:#4589FF;stroke-width:0.72;stroke-linejoin:round;stroke-miterlimit:10;}
</style>
<g id="office">
	<path id="office_1_" class="st0" d="M20,39h-4v-8h4V39z M12,15v-2 M12,21v-2 M12,27v-2 M20,15v-2 M20,21v-2 M20,27v-2 M16,15v-2
		 M16,21v-2 M16,27v-2 M12,33v-2 M24,15v-2 M24,21v-2 M24,27v-2 M24,33v-2 M31,21v-2 M31,27v-2 M31,33v-2 M35,21v-2 M35,27v-2
		 M35,33v-2 M27,9H9v30h18V9z M39,16H27v23h12V16z M33,12h-6v4h6V12z"/>
</g>
<g id="Layer_1_1_">
</g>
</svg>
